<?xml version="1.0" encoding="utf-8"?><svg xmlns="http://www.w3.org/2000/svg" xmlns:xlink="http://www.w3.org/1999/xlink"><symbol viewBox="0 0 443.294 443.294" id="clock" xmlns="http://www.w3.org/2000/svg"><path d="M221.647 0C99.433 0 0 99.433 0 221.647s99.433 221.647 221.647 221.647 221.647-99.433 221.647-221.647S343.861 0 221.647 0zm0 415.588c-106.941 0-193.941-87-193.941-193.941s87-193.941 193.941-193.941 193.941 87 193.941 193.941-87 193.941-193.941 193.941z"/><path d="M235.5 83.118h-27.706v144.265l87.176 87.176 19.589-19.589-79.059-79.059z"/></symbol><symbol viewBox="0 0 512 512" id="mail" xmlns="http://www.w3.org/2000/svg"><path d="M467 61H45C20.218 61 0 81.196 0 106v300c0 24.72 20.128 45 45 45h422c24.72 0 45-20.128 45-45V106c0-24.72-20.128-45-45-45zm-6.214 30L256.954 294.833 51.359 91h409.427zM30 399.788V112.069l144.479 143.24L30 399.788zM51.213 421l144.57-144.57 50.657 50.222c5.864 5.814 15.327 5.795 21.167-.046L317 277.213 460.787 421H51.213zM482 399.787L338.213 256 482 112.212v287.575z"/></symbol><symbol viewBox="0 0 512.021 512.021" id="phone" xmlns="http://www.w3.org/2000/svg"><path d="M367.988 512.021c-16.528 0-32.916-2.922-48.941-8.744-70.598-25.646-136.128-67.416-189.508-120.795S34.389 263.572 8.744 192.974c-8.241-22.688-10.673-46.108-7.226-69.612 3.229-22.016 11.757-43.389 24.663-61.809 12.963-18.501 30.245-33.889 49.977-44.5C97.2 5.738 120.167 0 144.423 0a16.002 16.002 0 0 1 15.645 12.647l25.114 117.199a16.004 16.004 0 0 1-4.331 14.667l-42.913 42.912c40.482 80.486 106.17 146.174 186.656 186.656l42.912-42.913a16.01 16.01 0 0 1 14.667-4.331l117.199 25.114a16 16 0 0 1 12.647 15.645c0 24.256-5.738 47.224-17.054 68.266-10.611 19.732-25.999 37.014-44.5 49.977-18.419 12.906-39.792 21.434-61.809 24.663a142.318 142.318 0 0 1-20.668 1.519zM131.639 32.7c-31.995 3.532-60.393 20.302-79.251 47.217-21.206 30.265-26.151 67.49-13.567 102.132C88.125 317.775 194.246 423.896 329.972 473.2c34.641 12.584 71.866 7.64 102.132-13.567 26.915-18.858 43.685-47.256 47.217-79.251l-95.341-20.43-44.816 44.816a15.998 15.998 0 0 1-18.117 3.168c-95.19-44.72-172.242-121.772-216.962-216.962a15.999 15.999 0 0 1 3.168-18.117l44.816-44.816z"/></symbol><symbol viewBox="0 0 384 384" id="phone2" xmlns="http://www.w3.org/2000/svg"><path d="M353.188 252.052c-23.51 0-46.594-3.677-68.469-10.906-10.719-3.656-23.896-.302-30.438 6.417l-43.177 32.594c-50.073-26.729-80.917-57.563-107.281-107.26l31.635-42.052c8.219-8.208 11.167-20.198 7.635-31.448-7.26-21.99-10.948-45.063-10.948-68.583C132.146 13.823 118.323 0 101.333 0h-70.52C13.823 0 0 13.823 0 30.813 0 225.563 158.438 384 353.188 384c16.99 0 30.813-13.823 30.813-30.813v-70.323c-.001-16.989-13.824-30.812-30.813-30.812z"/></symbol><symbol viewBox="0 0 368.16 368.16" id="pin" xmlns="http://www.w3.org/2000/svg"><path d="M184.08 0c-74.992 0-136 61.008-136 136 0 24.688 11.072 51.24 11.536 52.36 3.576 8.488 10.632 21.672 15.72 29.4l93.248 141.288c3.816 5.792 9.464 9.112 15.496 9.112s11.68-3.32 15.496-9.104l93.256-141.296c5.096-7.728 12.144-20.912 15.72-29.4.464-1.112 11.528-27.664 11.528-52.36 0-74.992-61.008-136-136-136zM293.8 182.152c-3.192 7.608-9.76 19.872-14.328 26.8l-93.256 141.296c-1.84 2.792-2.424 2.792-4.264 0L88.696 208.952c-4.568-6.928-11.136-19.2-14.328-26.808-.136-.328-10.288-24.768-10.288-46.144 0-66.168 53.832-120 120-120s120 53.832 120 120c0 21.408-10.176 45.912-10.28 46.152z"/><path d="M184.08 64.008c-39.704 0-72 32.304-72 72s32.296 72 72 72 72-32.304 72-72-32.296-72-72-72zm0 128c-30.872 0-56-25.12-56-56s25.128-56 56-56 56 25.12 56 56-25.128 56-56 56z"/></symbol><symbol viewBox="0 0 512 512" id="viber" xmlns="http://www.w3.org/2000/svg"><path d="M255.948 40.96c5.973 4.267 11.093 5.12 26.453 5.973 45.227 2.56 73.387 12.8 104.96 35.84 39.253 28.16 64 68.267 72.533 117.76 2.56 12.8 3.413 23.893 4.267 40.107.853 11.947.853 16.213 3.413 20.48 4.267 6.827 11.093 11.093 18.773 11.947h2.56c6.827 0 13.653-3.413 17.067-9.387 5.973-6.827 5.973-12.8 5.12-26.453-1.707-41.813-10.24-80.213-27.307-112.64-11.947-23.04-23.04-38.4-43.52-58.027-21.333-20.48-37.547-32.427-63.147-44.373-26.453-12.8-45.227-17.067-73.387-20.48C298.615.853 288.375 0 280.695 0c-13.653 0-19.627 0-25.6 5.973-5.12 4.267-7.68 11.093-7.68 17.92s3.413 12.8 8.533 17.067zm10.24-22.187c.853-.853 1.707-1.707 7.68-1.707h5.973c6.827 0 17.067.853 22.187 1.707 26.453 3.413 43.52 6.827 68.267 18.773 23.893 11.947 38.4 22.187 58.88 41.813 18.773 18.773 29.013 32.427 40.107 53.76 15.36 30.72 23.893 65.707 25.6 105.813 0 12.8 0 13.653-1.707 14.507-.853 1.707-3.413 1.707-5.12 1.707s-4.267-.853-5.12-2.56c-.853-.853-.853-2.56-1.707-12.8-.853-17.067-1.707-29.013-4.267-42.667-10.24-54.613-36.693-98.133-79.36-128.853-34.133-24.747-65.707-35.84-114.347-38.4-14.507-.853-15.36-1.707-17.067-2.56-.853-.853-1.707-2.56-1.707-4.267s.855-3.412 1.708-4.266z"/><path d="M395.895 224.427c0 11.947.853 23.04 12.8 29.013 3.413 1.707 7.68 2.56 11.947 2.56 3.413 0 7.68-.853 10.24-2.56 4.267-1.707 9.387-7.68 11.093-11.947 2.56-5.973 1.707-28.16.853-34.133-3.413-27.307-12.8-52.907-27.307-74.24-27.307-39.253-67.413-62.293-119.467-69.973-17.92-2.56-30.72-3.413-38.4 8.533-5.973 8.533-5.12 20.48 1.707 28.16 5.973 6.827 13.653 7.68 21.333 8.533 20.48 1.707 43.52 8.533 58.88 17.067 17.92 10.24 32.427 25.6 42.667 43.52 8.534 16.213 13.654 35.84 13.654 55.467zm-46.934-113.494c-17.92-10.24-43.52-17.067-68.267-18.773-6.827 0-8.533-1.707-9.387-2.56-1.707-2.56-1.707-5.12 0-7.68 1.707-1.707 2.56-3.413 22.187-.853 47.787 6.827 83.627 27.307 107.52 62.293 13.653 18.773 22.187 41.813 24.747 66.56 1.707 8.533.853 23.04.853 25.6l-3.413 3.413c-.853 0-5.12 0-5.973-.853-1.707-.853-3.413-1.707-3.413-13.653 0-22.187-5.973-46.08-16.213-64-11.094-20.48-28.161-37.547-48.641-49.494z"/><path d="M348.961 151.893c-11.093-11.093-24.747-17.92-42.667-21.333-4.267-.853-11.093-1.707-15.36-1.707-6.827 0-10.24 0-15.36 2.56-5.973 3.413-10.24 9.387-11.947 16.213-1.707 6.827.853 14.507 5.12 19.627 5.973 5.973 11.093 6.827 22.187 8.533 18.773 1.707 29.013 8.533 34.987 20.48 3.413 5.973 5.12 12.8 5.973 23.04.853 8.533 2.56 14.507 9.387 19.627 4.267 2.56 9.387 4.267 14.507 4.267 5.973 0 11.093-1.707 13.653-4.267 8.533-7.68 9.387-17.92 6.827-32.427-4.267-23.893-11.947-40.959-27.307-54.613zm10.24 73.387c-1.707 1.707-5.973 1.707-8.533 0-.853-.853-1.707-.853-2.56-7.68-.853-11.093-2.56-19.627-6.827-28.16-8.533-17.92-23.893-28.16-47.787-30.72-9.387-1.707-10.24-1.707-11.093-3.413-.853-1.707-.853-3.413-.853-5.12.853-1.707 1.707-3.413 3.413-4.267.853-.853.853-.853 2.56-.853h3.413c4.267.853 10.24.853 12.8 1.707 14.507 3.413 25.6 8.533 34.987 17.067 11.947 11.093 18.773 24.747 21.333 44.373 2.561 13.653.854 15.359-.853 17.066z"/><path d="M502.561 388.267c-5.973-6.827-42.667-35.84-58.88-46.933-12.8-8.533-33.28-20.48-42.667-25.6-13.653-6.827-28.16-7.68-41.813-3.413-2.56.853-5.12 1.707-6.827 2.56-6.827 3.413-11.947 9.387-22.187 21.333-10.24 12.8-12.8 15.36-12.8 15.36-.853.853-2.56 1.707-4.267 2.56h-.853c-7.68 4.267-20.48.853-41.813-9.387-17.92-8.533-34.133-19.627-52.053-35.84-15.36-13.653-30.72-31.573-39.253-45.227-11.947-19.627-19.627-41.813-19.627-52.053 0-4.267 1.707-10.24 3.413-12.8l.853-.853 1.707-1.707c3.413-2.56 7.68-5.973 11.947-9.387 19.627-15.36 25.6-21.333 29.013-33.28 3.413-11.093.853-23.893-8.533-41.813-13.653-26.453-58.027-82.773-75.947-94.72-2.56-2.56-7.68-5.12-11.093-5.973-7.68-3.413-17.92-4.267-24.747-2.56-9.387 1.707-19.627 7.68-41.813 24.747-12.8 8.533-31.573 26.453-36.693 34.987-11.947 20.48-8.533 37.547 1.707 67.413 10.24 28.16 23.893 56.32 40.107 84.48l.853 1.707c3.413 5.12 6.827 11.093 10.24 16.213l.853 1.707c3.413 5.12 6.827 11.093 10.24 16.213l5.973 8.533c2.56 3.413 4.267 5.973 6.827 9.387 4.267 5.973 9.387 11.947 13.653 17.92 49.493 64 106.667 116.053 174.08 157.867l2.56 1.707c9.387 5.973 19.627 11.947 30.72 17.92l4.267 2.56c11.093 5.973 21.333 11.093 32.427 16.213l3.413 1.707c12.8 5.973 23.893 11.093 34.987 15.36 13.653 5.12 19.627 6.827 29.013 6.827h5.12c5.973 0 11.947-.853 17.067-2.56 7.68-2.56 14.507-5.973 23.04-11.947.853-.853 2.56-2.56 4.267-3.413 1.707-1.707 4.267-3.413 5.973-5.12 9.387-7.68 20.48-19.627 29.013-31.573 4.267-5.973 10.24-15.36 13.653-23.04 3.413-6.827 4.267-14.507 4.267-21.333 0-9.389-3.413-17.923-9.387-24.749zm-10.24 40.106c-1.707 5.12-5.973 11.947-11.947 19.627-7.68 11.093-17.92 21.333-26.453 29.013-1.707 1.707-3.413 3.413-5.12 4.267-1.707.853-2.56 1.707-4.267 2.56-6.827 5.12-12.8 7.68-17.92 9.387-4.267.853-8.533 1.707-12.8 1.707-9.387 0-12.8 0-26.453-5.12-10.24-5.12-21.333-9.387-34.133-15.36l-3.413-1.707c-10.24-5.12-21.333-10.24-31.573-16.213l-4.267-2.56c-10.24-5.12-20.48-11.093-29.867-17.067l-2.56-1.707c-66.56-40.96-122.027-91.307-169.813-153.6l-12.8-17.92c-2.56-3.413-5.12-5.973-6.827-9.387l-5.12-7.68c-4.267-5.12-7.68-10.24-11.093-16.213l-.853-.853c-3.413-5.12-5.973-11.093-9.387-16.213l-.853-1.707c-16.213-26.453-29.013-54.613-39.253-81.92-11.947-30.72-10.24-40.96-3.413-52.907 3.413-5.12 19.627-21.333 32.427-29.867C73.335 32.427 83.575 26.453 89.548 25.6c3.413-.853 11.093 0 15.36 1.707 1.707.853 5.12 2.56 7.68 4.267 12.8 8.533 55.467 60.587 69.973 87.893 6.827 12.8 9.387 23.04 7.68 29.013-1.707 5.973-3.413 9.387-23.04 24.747-5.12 3.413-9.387 7.68-12.8 10.24l-2.56 2.56-.853.853c-.853.853-1.707.853-1.707 1.707l-.853.853c-4.267 5.12-6.827 15.36-6.827 23.04.853 15.36 9.387 40.107 22.187 60.587 9.387 14.507 26.453 34.133 42.667 48.64 18.773 17.067 35.84 29.013 55.467 38.4 25.6 11.947 41.813 15.36 55.467 10.24h.853l1.707-.853c1.707-.853 4.267-1.707 5.12-2.56.853-.853 1.707-.853 2.56-1.707.853-.853 1.707-1.707 15.36-17.92 10.24-11.947 13.653-15.36 17.067-17.067.853-.853 2.56-.853 4.267-1.707 9.387-3.413 18.773-2.56 29.013 2.56 8.533 5.12 28.16 16.213 40.107 24.747 17.92 11.947 52.053 39.253 55.467 43.52 4.267 4.267 5.973 8.533 5.973 14.507-.002 4.266-.855 9.386-2.562 14.506z"/></symbol><symbol viewBox="0 0 24 24" id="vk" xmlns="http://www.w3.org/2000/svg"><path d="M19.915 13.028c-.388-.49-.277-.708 0-1.146.005-.005 3.208-4.431 3.538-5.932l.002-.001c.164-.547 0-.949-.793-.949h-2.624c-.668 0-.976.345-1.141.731 0 0-1.336 3.198-3.226 5.271-.61.599-.892.791-1.225.791-.164 0-.419-.192-.419-.739V5.949c0-.656-.187-.949-.74-.949H9.161c-.419 0-.668.306-.668.591 0 .622.945.765 1.043 2.515v3.797c0 .832-.151.985-.486.985-.892 0-3.057-3.211-4.34-6.886-.259-.713-.512-1.001-1.185-1.001H.9c-.749 0-.9.345-.9.731 0 .682.892 4.073 4.148 8.553C6.318 17.343 9.374 19 12.154 19c1.671 0 1.875-.368 1.875-1.001 0-2.922-.151-3.198.686-3.198.388 0 1.056.192 2.616 1.667C19.114 18.217 19.407 19 20.405 19h2.624c.748 0 1.127-.368.909-1.094-.499-1.527-3.871-4.668-4.023-4.878z"/></symbol></svg>